<svg width="15" height="15" viewBox="0 0 15 15" fill="none" xmlns="http://www.w3.org/2000/svg">
<g clip-path="url(#clip0_4579_8467)">
<path d="M14.9963 15V14.9994H15V9.49813C15 6.80689 14.4207 4.73376 11.2744 4.73376C9.76191 4.73376 8.74691 5.56376 8.33254 6.35064H8.28879V4.98501H5.30566V14.9994H8.41191V10.0406C8.41191 8.73501 8.65941 7.47251 10.2763 7.47251C11.8694 7.47251 11.8932 8.96251 11.8932 10.1244V15H14.9963Z" fill="#87AFBF"/>
<path d="M0.248047 4.9856H3.35805V15H0.248047V4.9856Z" fill="#87AFBF"/>
<path d="M1.80125 0C0.806875 0 0 0.806874 0 1.80125C0 2.79562 0.806875 3.61937 1.80125 3.61937C2.79562 3.61937 3.6025 2.79562 3.6025 1.80125C3.60187 0.806874 2.795 0 1.80125 0V0Z" fill="#87AFBF"/>
</g>
<defs>
<clipPath id="clip0_4579_8467">
<rect width="15" height="15" fill="white"/>
</clipPath>
</defs>
</svg>
