<svg width="19" height="19" viewBox="0 0 19 19" fill="none" xmlns="http://www.w3.org/2000/svg">
<g clip-path="url(#clip0_4579_8454)">
<path d="M17.3297 2.26367H1.66953C1.41248 2.26367 1.17182 2.32687 0.954102 2.43103L9.4625 10.9394L11.3695 9.1067C11.3695 9.1067 11.3697 9.10652 11.3697 9.10644C11.3697 9.10637 11.3699 9.1063 11.3699 9.1063L18.0454 2.43118C17.8276 2.32694 17.5868 2.26367 17.3297 2.26367Z" fill="#87AFBF"/>
<path d="M18.8328 3.21838L12.5508 9.50003L18.8325 15.7818C18.9367 15.5641 18.9999 15.3234 18.9999 15.0663V3.93355C18.9999 3.67665 18.9369 3.43603 18.8328 3.21838Z" fill="#87AFBF"/>
<path d="M0.167363 3.21826C0.0631973 3.43598 0 3.67664 0 3.93369V15.0665C0 15.3234 0.063123 15.5641 0.167215 15.7817L6.4492 9.50009L0.167363 3.21826Z" fill="#87AFBF"/>
<path d="M11.7636 10.2872L9.85634 12.1201C9.74761 12.2289 9.60519 12.2832 9.4628 12.2832C9.32041 12.2832 9.17795 12.2289 9.06925 12.1201L7.2362 10.2871L0.954102 16.5688C1.17186 16.673 1.41266 16.7363 1.66979 16.7363H17.3299C17.587 16.7363 17.8277 16.6731 18.0454 16.5689L11.7636 10.2872Z" fill="#87AFBF"/>
</g>
<defs>
<clipPath id="clip0_4579_8454">
<rect width="19" height="19" fill="white"/>
</clipPath>
</defs>
</svg>
