<svg width="14" height="14" viewBox="0 0 14 14" fill="none" xmlns="http://www.w3.org/2000/svg">
<path d="M12.8766 9.18941C12.0195 9.18941 11.1779 9.05535 10.3804 8.79179C9.98958 8.6585 9.50917 8.78078 9.27066 9.02574L7.6965 10.2141C5.87092 9.23957 4.7464 8.11542 3.78521 6.30354L4.93857 4.7704C5.23822 4.47115 5.3457 4.03401 5.21693 3.62385C4.95224 2.82213 4.81779 1.98093 4.81779 1.12343C4.81782 0.503964 4.31386 0 3.69443 0H1.12339C0.503964 0 0 0.503964 0 1.12339C0 8.22366 5.77638 14 12.8766 14C13.4961 14 14 13.4961 14 12.8766V10.3128C14 9.69337 13.496 9.18941 12.8766 9.18941Z" fill="#87AFBF"/>
</svg>
